<svg width="36" height="40" viewBox="0 0 36 40" fill="none" xmlns="http://www.w3.org/2000/svg">
<path d="M16.1211 0.107376C10.9714 0.990402 7.13452 4.89759 6.3609 10.0473C6.3062 10.3833 6.27494 11.9383 6.27494 13.9154C6.27494 17.0646 6.28276 17.2365 6.43904 17.5725C6.68129 18.1117 6.95479 18.4165 7.41584 18.6743L7.83782 18.9166V19.6277C7.83782 20.2216 7.86907 20.4169 8.02536 20.7451C8.43171 21.6203 9.20533 22.1048 10.1978 22.1048H10.7916L11.112 22.6909C11.2918 23.0191 11.6669 23.5583 11.9404 23.9021L12.4483 24.5273L11.7919 25.8401L11.1355 27.1451L9.04123 27.8406C5.89204 28.8877 4.75114 29.5363 3.22734 31.1461C1.29719 33.1856 0.171916 35.8034 0.0468862 38.515L0 39.57L0.218802 39.781L0.437605 39.9998H17.9965H35.5554L35.7742 39.781L35.993 39.57L35.9461 38.515C35.8211 35.8034 34.6958 33.1856 32.7657 31.1461C31.2419 29.5363 30.101 28.8877 26.9518 27.8406L24.8575 27.1451L24.2011 25.8323L23.5447 24.5273L23.9198 24.0662C24.8966 22.8941 25.4905 21.6125 25.8031 20.0106L26.0062 18.9791H26.983C27.8426 18.9791 28.0067 18.9556 28.3584 18.7915C28.8663 18.5571 29.2961 18.1273 29.5305 17.6194L29.7181 17.2209V13.9154C29.7181 11.9462 29.6868 10.3833 29.6321 10.0473C29.257 7.53103 28.1708 5.33519 26.4048 3.52226C24.5918 1.65462 22.271 0.466839 19.661 0.0761185C18.9186 -0.0410957 16.8556 -0.0176506 16.1211 0.107376ZM19.6844 1.7484C23.6541 2.44387 26.8111 5.38989 27.8035 9.32834C27.8973 9.71124 28.0067 10.2348 28.038 10.4771L28.0849 10.9303H27.3503H26.6158L26.5689 10.2426C26.4907 9.06265 26.0062 7.69513 25.2951 6.61675C24.2636 5.07732 22.7164 3.94424 20.8487 3.37379C20.1533 3.1628 20.1142 3.15498 17.9965 3.15498C15.8788 3.15498 15.8397 3.1628 15.1443 3.37379C13.2766 3.94424 11.7294 5.07732 10.6979 6.61675C9.98677 7.69513 9.50228 9.06265 9.42414 10.2426L9.37725 10.9303H8.65051C8.11132 10.9303 7.91596 10.9068 7.91596 10.8287C7.93159 10.0785 8.40045 8.39843 8.86931 7.39819C9.38506 6.30418 9.9477 5.52274 10.8776 4.59283C12.4796 2.98307 14.3316 2.05316 16.6681 1.68588C17.1994 1.59992 19.0514 1.639 19.6844 1.7484ZM20.0595 4.88196C20.755 5.03825 22.0365 5.65558 22.6226 6.11663C23.6072 6.89807 24.4746 8.26558 24.795 9.55495C24.9826 10.313 25.0138 11.6336 24.8419 11.6336C24.7872 11.6336 24.3261 11.5632 23.826 11.4773C21.4426 11.0631 19.2077 9.97693 17.4495 8.3828L16.7853 7.78109L15.9257 7.82798C14.2612 7.91394 12.6671 8.61723 11.4871 9.80502C10.9714 10.313 10.9792 10.3286 11.2918 9.25019C11.9872 6.82774 14.1753 5.02262 16.7384 4.74911C17.5667 4.66316 19.3953 4.73349 20.0595 4.88196ZM16.3242 9.60966C16.6055 9.93005 17.8168 10.8287 18.5748 11.2741C20.1064 12.1884 21.7865 12.7979 23.615 13.1105C24.1464 13.2043 24.67 13.2746 24.7716 13.2746C24.9513 13.2746 24.9591 13.298 24.92 13.5637C24.8966 13.7278 24.8575 14.228 24.8341 14.6812C24.7403 16.2519 24.3574 19.0494 24.0839 20.1903C23.8807 20.9952 23.2634 22.2377 22.7398 22.8863C21.552 24.3476 19.8954 25.1524 18.0746 25.1681C16.7696 25.1759 15.8085 24.9102 14.7535 24.2303C14.144 23.8396 13.3157 23.0426 12.925 22.4721L12.6749 22.1048H13.4173H14.1518L14.3941 22.5268C14.652 22.9879 14.9567 23.2614 15.4959 23.5036C15.8085 23.6443 16.0117 23.6677 17.2151 23.6677C18.4888 23.6677 18.606 23.6521 18.9811 23.4802C19.8563 23.0738 20.3408 22.3002 20.3408 21.3234C20.3408 20.3466 19.8563 19.573 18.9811 19.1666C18.606 18.9947 18.4888 18.9791 17.2151 18.9791C16.0117 18.9791 15.8085 19.0025 15.4959 19.1432C14.9567 19.3854 14.652 19.6589 14.3941 20.12L14.1518 20.542H13.0656H11.9872L11.9013 20.2372C11.6669 19.362 11.2527 16.0487 11.0808 13.6653L11.0339 12.9933L11.6512 12.1806C12.7921 10.6646 13.7377 9.94567 15.0349 9.60184C15.8163 9.39867 16.1367 9.40648 16.3242 9.60966ZM9.43195 13.5247C9.48665 14.5483 9.67419 16.7754 9.75234 17.213L9.79141 17.4318L9.10375 17.4006C7.86907 17.3381 7.8847 17.3693 7.85345 14.6577L7.83 12.4932H8.60363H9.37725L9.43195 13.5247ZM28.1396 14.6577C28.1083 17.3693 28.1239 17.3381 26.8893 17.4006L26.2016 17.4318L26.2407 17.213C26.311 16.7754 26.5064 14.5562 26.5611 13.5247L26.6079 12.4932H27.3894H28.163L28.1396 14.6577ZM10.0884 19.5027C10.1352 19.7996 10.1978 20.1434 10.229 20.2763C10.2759 20.5107 10.2603 20.5185 10.0727 20.4873C9.64294 20.4013 9.40069 19.9715 9.40069 19.2839C9.40069 18.9791 9.40069 18.9791 9.70545 18.9791H10.0024L10.0884 19.5027ZM18.0668 20.5889C18.903 20.7608 18.903 21.886 18.0668 22.058C17.7464 22.1205 16.6837 22.1205 16.3633 22.058C15.7694 21.9329 15.5193 21.2453 15.9335 20.8311C16.0429 20.7217 16.207 20.6123 16.3008 20.5967C16.5821 20.542 17.8011 20.542 18.0668 20.5889ZM23.3025 27.8953C23.3103 28.075 22.6148 29.8098 22.1069 30.896L21.6614 31.8259L20.3799 30.5444L19.0905 29.2628L19.3484 28.9815C19.489 28.833 20.2158 28.0594 20.966 27.278L22.3257 25.8401L22.8102 26.8091C23.0837 27.3327 23.3025 27.825 23.3025 27.8953ZM15.1599 27.7468L16.7384 29.3331L15.535 30.5834L14.3394 31.8337L13.894 30.896C13.4173 29.8958 12.6827 28.0828 12.6827 27.9109C12.6827 27.7937 13.4798 26.1683 13.5423 26.1683C13.5658 26.1683 14.2925 26.8794 15.1599 27.7468ZM18.0903 26.8169H19.0827L18.5279 27.4108C18.2231 27.739 17.9574 28.0125 17.9262 28.0281C17.9027 28.0359 17.5745 27.739 17.2151 27.3717C16.5665 26.7153 16.5587 26.6997 16.8243 26.7622C16.9728 26.7935 17.5433 26.8169 18.0903 26.8169ZM11.6278 29.8567C12.4639 31.9588 13.597 34.0139 15.4256 36.7333C15.8397 37.3507 16.2539 37.9836 16.3477 38.1399L16.5274 38.4369H9.09593C2.86006 38.4369 1.66446 38.4213 1.66446 38.3275C1.66446 38.0383 1.92234 36.8115 2.10207 36.2332C2.87569 33.7951 4.55578 31.7009 6.70473 30.4975C7.19704 30.224 10.8229 28.919 11.1277 28.9112C11.2136 28.9033 11.3621 29.1925 11.6278 29.8567ZM26.7955 29.5285C27.8504 29.888 28.921 30.3021 29.2492 30.4818C31.406 31.6618 33.1095 33.7795 33.8909 36.2332C34.0707 36.8115 34.3285 38.0383 34.3285 38.3275C34.3285 38.4213 33.1329 38.4369 26.8971 38.4369H19.4656L19.6453 38.1399C19.7391 37.9836 20.1533 37.3507 20.5674 36.7333C22.3726 34.053 23.5525 31.9197 24.3652 29.8567C24.5762 29.3331 24.7872 28.9033 24.8341 28.9033C24.881 28.9033 25.764 29.1847 26.7955 29.5285ZM19.364 31.951L20.7706 33.3575L20.6299 33.6154C20.5518 33.7561 20.208 34.2796 19.872 34.7719C19.5359 35.2642 18.9811 36.0926 18.6529 36.6161C18.3247 37.1475 18.0278 37.5773 18.0043 37.5773C17.9809 37.5773 17.6839 37.1475 17.3479 36.6161C17.0119 36.0926 16.4024 35.1705 15.996 34.5766C15.5897 33.9827 15.2615 33.4435 15.2615 33.3888C15.2615 33.295 17.8168 30.5444 17.9105 30.5444C17.934 30.5444 18.5904 31.1773 19.364 31.951Z" fill="#FF3E54"/>
<path d="M26.0141 31.1385C25.85 31.3026 25.8109 31.4198 25.8109 31.7167C25.8109 32.0137 25.85 32.1309 26.0141 32.295C26.1782 32.4591 26.2954 32.4982 26.5924 32.4982C27.1081 32.4982 27.3738 32.2325 27.3738 31.7167C27.3738 31.4198 27.3347 31.3026 27.1706 31.1385C26.8737 30.8493 26.311 30.8493 26.0141 31.1385Z" fill="#FF3E54"/>
<path d="M28.7725 32.6466C28.5928 32.8263 28.5459 32.9435 28.5459 33.2014C28.5459 33.514 28.5928 33.5765 29.2023 34.2094C29.9837 35.0065 30.0853 35.1237 30.4604 35.7645C30.7808 36.3115 30.9058 36.4053 31.3591 36.4053C31.7732 36.4053 32.1405 36.0614 32.1405 35.6629C32.1405 35.0299 30.7105 33.0998 29.8353 32.5606C29.468 32.3418 29.046 32.3731 28.7725 32.6466Z" fill="#FF3E54"/>
</svg>
