<svg width="29" height="30" viewBox="0 0 29 30" fill="none" xmlns="http://www.w3.org/2000/svg">
<g filter="url(#filter0_d_216_323)">
<path d="M8.6875 22H4.32812V7.98438H8.6875V22ZM6.48438 6.10938C5.125 6.10938 4 4.9375 4 3.53125C4 1.60938 6.0625 0.390625 7.75 1.375C8.54688 1.79688 9.01562 2.64062 9.01562 3.53125C9.01562 4.9375 7.89062 6.10938 6.48438 6.10938ZM24.9531 22H20.6406V15.2031C20.6406 13.5625 20.5938 11.5 18.3438 11.5C16.0938 11.5 15.7656 13.2344 15.7656 15.0625V22H11.4062V7.98438H15.5781V9.90625H15.625C16.2344 8.82812 17.6406 7.65625 19.75 7.65625C24.1562 7.65625 25 10.5625 25 14.3125V22H24.9531Z" fill="white"/>
</g>
<defs>
<filter id="filter0_d_216_323" x="0" y="0.390625" width="29" height="29.6094" filterUnits="userSpaceOnUse" color-interpolation-filters="sRGB">
<feFlood flood-opacity="0" result="BackgroundImageFix"/>
<feColorMatrix in="SourceAlpha" type="matrix" values="0 0 0 0 0 0 0 0 0 0 0 0 0 0 0 0 0 0 127 0" result="hardAlpha"/>
<feOffset dy="4"/>
<feGaussianBlur stdDeviation="2"/>
<feComposite in2="hardAlpha" operator="out"/>
<feColorMatrix type="matrix" values="0 0 0 0 0 0 0 0 0 0 0 0 0 0 0 0 0 0 0.25 0"/>
<feBlend mode="normal" in2="BackgroundImageFix" result="effect1_dropShadow_216_323"/>
<feBlend mode="normal" in="SourceGraphic" in2="effect1_dropShadow_216_323" result="shape"/>
</filter>
</defs>
</svg>
