<svg width="40" height="40" viewBox="0 0 40 40" fill="none" xmlns="http://www.w3.org/2000/svg">
<path d="M19.3359 0.140923C19.2109 0.22686 19.0469 0.35186 18.9844 0.429985C18.9219 0.500298 18.414 1.46905 17.8515 2.5628L16.8359 4.57061L14.5781 4.89874C12.4375 5.21124 12.3047 5.24249 12.039 5.45342C11.5469 5.84405 11.3672 6.50811 11.5937 7.03936C11.664 7.21124 12.3203 7.91436 13.3281 8.90655L14.9531 10.4925L14.5703 12.7737L14.1797 15.0628L14.3359 15.4378C14.4453 15.6878 14.6015 15.8909 14.8047 16.0315C15.0859 16.2347 15.1719 16.2503 15.625 16.2269C16.1015 16.2034 16.2422 16.1409 18.0625 15.1722L20 14.1487L21.9297 15.1722C23.7344 16.1253 23.8984 16.1956 24.375 16.2269C24.8437 16.2581 24.9062 16.2425 25.2031 16.0315C25.4297 15.8675 25.5703 15.68 25.6719 15.4222L25.8125 15.0472L25.4297 12.7659L25.0469 10.4847L26.7031 8.85967C28.1094 7.46905 28.3672 7.17999 28.4453 6.89092C28.5937 6.38311 28.4453 5.89874 28.0469 5.53155C27.6875 5.21124 27.7734 5.22686 24.9219 4.82061L23.164 4.57061L22.1484 2.5628C21.1094 0.50811 20.9765 0.297173 20.6094 0.109673C20.3047 -0.0465775 19.6172 -0.0309525 19.3359 0.140923ZM20.8594 3.73467C21.7109 5.48467 22.0234 5.95342 22.4453 6.08624C22.5859 6.13311 23.4687 6.27374 24.414 6.40655C25.3594 6.53936 26.2187 6.67217 26.3203 6.69561C26.4922 6.74249 26.375 6.8753 25.0156 8.19561C23.7109 9.46905 23.5156 9.69561 23.4375 9.99249C23.3594 10.2972 23.3906 10.5784 23.6875 12.3597C23.8828 13.469 24.0312 14.3753 24.0156 14.3753C24.0078 14.3753 23.1953 13.9534 22.2109 13.4378C20.5703 12.5784 20.3828 12.5003 20 12.5003C19.6094 12.5003 19.4297 12.5784 17.7969 13.4378C16.8125 13.9534 16 14.3753 15.9844 14.3753C15.9765 14.3753 16.1172 13.469 16.3125 12.3597C16.6172 10.5706 16.6406 10.2972 16.5625 9.99249C16.4844 9.69561 16.2812 9.46124 14.9765 8.19561C13.5078 6.76592 13.4844 6.73467 13.7109 6.6878C13.8437 6.66436 14.7031 6.53936 15.625 6.40655C16.5469 6.27374 17.414 6.1253 17.5547 6.08624C17.9765 5.95342 18.2969 5.48467 19.1406 3.72686C19.5937 2.79717 19.9765 2.03155 20 2.03155C20.0234 2.03936 20.4062 2.79717 20.8594 3.73467Z" fill="#FF3E54"/>
<path d="M6.38285 2.85967C6.12504 3.11749 6.05473 3.42999 6.19535 3.75811C6.25785 3.90655 6.75004 4.45342 7.2891 4.97686C8.24223 5.91436 8.27348 5.9378 8.61723 5.9378C9.03129 5.9378 9.34379 5.67999 9.42191 5.27374C9.49223 4.89092 9.33598 4.67217 8.25785 3.60967C7.30473 2.67217 7.28129 2.65655 6.93754 2.65655C6.6641 2.65655 6.5391 2.70342 6.38285 2.85967Z" fill="#FF3E54"/>
<path d="M31.7422 3.60967C30.6484 4.6878 30.5078 4.89092 30.5859 5.28936C30.6641 5.69561 30.9609 5.9378 31.3906 5.9378C31.7422 5.9378 31.7578 5.92999 32.7734 4.89874C33.4609 4.21124 33.8203 3.79717 33.8438 3.64874C33.9531 3.07842 33.6172 2.65655 33.0625 2.65655C32.7188 2.65655 32.6953 2.67217 31.7422 3.60967Z" fill="#FF3E54"/>
<path d="M4.42973 7.53936C4.2188 7.75811 4.14067 8.01592 4.20317 8.32061C4.2188 8.42217 4.32817 8.60186 4.42973 8.71124L4.63286 8.90655H6.18755H7.75005L7.97661 8.67999C8.1563 8.5003 8.20317 8.38311 8.20317 8.1253C8.20317 7.86749 8.1563 7.7503 7.97661 7.57061L7.75005 7.34405H6.18755H4.63286L4.42973 7.53936Z" fill="#FF3E54"/>
<path d="M32.0234 7.57061C31.8438 7.7503 31.7969 7.86749 31.7969 8.1253C31.7969 8.38311 31.8438 8.5003 32.0234 8.67999L32.25 8.90655H33.8125H35.3672L35.5781 8.70342C35.8672 8.40655 35.8672 7.84405 35.5781 7.54717L35.3672 7.34405H33.8125H32.25L32.0234 7.57061Z" fill="#FF3E54"/>
<path d="M7.28906 11.2659C6.74999 11.7972 6.25781 12.344 6.19531 12.4925C5.96093 13.0472 6.32812 13.594 6.93749 13.594C7.28124 13.594 7.30468 13.5784 8.25781 12.6331C9.33593 11.5784 9.49218 11.3597 9.42187 10.9769C9.34374 10.5706 9.03124 10.3128 8.61718 10.3128C8.27343 10.3128 8.24218 10.3362 7.28906 11.2659Z" fill="#FF3E54"/>
<path d="M30.836 10.5003C30.5781 10.7425 30.4922 11.1565 30.6485 11.4534C30.7188 11.5784 31.2031 12.1097 31.7422 12.6331C32.6953 13.5784 32.7188 13.594 33.0625 13.594C33.4766 13.594 33.7813 13.3519 33.8594 12.9612C33.9375 12.5628 33.7344 12.2737 32.711 11.2659C31.7578 10.3362 31.7266 10.3128 31.3828 10.3128C31.125 10.3128 30.9844 10.3597 30.836 10.5003Z" fill="#FF3E54"/>
<path d="M11.6094 18.016L11.4062 18.2269V21.4535V24.6879H8.48438H5.57031L5.35938 24.891L5.15625 25.1019V28.3285V31.5629H2.78125H0.414062L0.203125 31.766L0 31.9769V35.7816V39.5863L0.203125 39.7972L0.414062 40.0004H20H39.5859L39.7969 39.7972L40 39.5863V35.7816V31.9769L39.7969 31.766L39.5859 31.5629H37.2188H34.8438V28.3285V25.1019L34.6406 24.891L34.4297 24.6879H31.5156H28.5938V21.4535V18.2269L28.3906 18.016L28.1797 17.8129H20H11.8203L11.6094 18.016ZM27.0312 22.0316V24.6879H20H12.9688V22.0316V19.3754H20H27.0312V22.0316ZM33.2812 28.9066V31.5629H31.8672H30.4531L30.2266 31.7894C30.0469 31.9691 30 32.0863 30 32.3441C30 32.6019 30.0469 32.7191 30.2266 32.8988L30.4531 33.1254H34.4453H38.4375V35.7816V38.4379H20H1.5625V35.7816V33.1254H13.1953H24.8203L25.0312 32.9222C25.3203 32.6254 25.3203 32.0629 25.0312 31.766L24.8203 31.5629H15.7734H6.71875V30.6254V29.6879H10.2266H13.7266L13.9375 29.4847C14.2266 29.1879 14.2266 28.6254 13.9375 28.3285L13.7266 28.1254H10.2266H6.71875V27.1879V26.2504H20H33.2812V28.9066Z" fill="#FF3E54"/>
<path d="M16.2969 28.3284C16.1328 28.4925 16.0938 28.6097 16.0938 28.9065C16.0938 29.2034 16.1328 29.3206 16.2969 29.4847C16.4609 29.6487 16.5781 29.6878 16.875 29.6878C17.1719 29.6878 17.2891 29.6487 17.4531 29.4847C17.7422 29.1878 17.7422 28.6253 17.4531 28.3284C17.2891 28.1644 17.1719 28.1253 16.875 28.1253C16.5781 28.1253 16.4609 28.1644 16.2969 28.3284Z" fill="#FF3E54"/>
<path d="M27.1485 31.7503C26.9297 31.9769 26.836 32.2659 26.9063 32.5472C27.1016 33.3284 28.2891 33.3284 28.4844 32.5472C28.5547 32.2659 28.461 31.9769 28.2422 31.7503C28.1016 31.6097 27.9688 31.5628 27.6954 31.5628C27.4219 31.5628 27.2891 31.6097 27.1485 31.7503Z" fill="#FF3E54"/>
</svg>
