<svg width="42" height="42" viewBox="0 0 42 42" fill="none" xmlns="http://www.w3.org/2000/svg">
<path d="M21.6182 3.92207L21.6182 3.92205C21.6255 3.25152 21.6292 2.73621 21.6217 2.34072C21.6143 1.9459 21.5957 1.66745 21.5576 1.472C21.5196 1.27726 21.4605 1.15456 21.363 1.08395C21.2668 1.01427 21.1437 1.00356 21.0025 1.00356C20.7916 1.00356 20.6288 1.08925 20.5215 1.26056C20.4451 1.37546 20.4062 1.53455 20.3879 1.91079L21.6182 3.92207ZM21.6182 3.92207C21.6085 4.78053 21.5938 5.38635 21.5706 5.78879C21.559 5.98985 21.5452 6.14143 21.5285 6.24886C21.5201 6.3025 21.5109 6.34647 21.5004 6.38068C21.4905 6.41299 21.4774 6.44373 21.4573 6.46387C21.4093 6.51186 21.3373 6.54413 21.2597 6.56464C21.1811 6.58545 21.0913 6.59557 21.0025 6.59557C20.9136 6.59557 20.8238 6.58545 20.7452 6.56464C20.6676 6.54413 20.5956 6.51186 20.5476 6.46387C20.5275 6.44373 20.5144 6.41299 20.5045 6.38068C20.494 6.34647 20.4848 6.3025 20.4764 6.24886C20.4597 6.14143 20.4459 5.98985 20.4343 5.78879C20.4111 5.38636 20.3964 4.78056 20.3867 3.92215L21.6182 3.92207Z" fill="#FF3E54" stroke="#FF3E54" stroke-width="0.1"/>
<path d="M11.011 3.68149L11.011 3.68148L11.0121 3.681C11.0804 3.64944 11.163 3.62638 11.2421 3.61363C11.3206 3.60097 11.4 3.59776 11.4614 3.60892L11.4614 3.60882L11.4646 3.60961C11.4809 3.61369 11.4957 3.62252 11.508 3.63142C11.5209 3.64077 11.5343 3.65271 11.5482 3.66648C11.576 3.69404 11.6086 3.73197 11.6453 3.77896C11.719 3.87312 11.8129 4.00769 11.9247 4.17819C12.1485 4.51942 12.4465 5.00799 12.8027 5.61299L12.8029 5.61337C12.8648 5.72058 12.9239 5.82298 12.9804 5.92081C13.573 6.94705 13.8749 7.46994 14.0064 7.7679C14.0783 7.93072 14.104 8.036 14.0918 8.12407C14.0812 8.19997 14.0421 8.2583 14.0006 8.32007C13.9944 8.32941 13.988 8.33882 13.9818 8.34839L13.9816 8.34869C13.7696 8.66661 13.2915 8.71225 13.0438 8.42207C13.0313 8.40785 13.0123 8.38072 12.989 8.34555C12.9648 8.30893 12.934 8.26059 12.8976 8.20211C12.8248 8.08511 12.7289 7.92658 12.6167 7.73808C12.3921 7.361 12.1018 6.86326 11.7993 6.33634L11.7993 6.33625C11.2151 5.31403 10.8946 4.71836 10.7792 4.3498C10.7214 4.16526 10.7115 4.0274 10.755 3.91836C10.7991 3.80801 10.8929 3.73929 11.011 3.68149Z" fill="#FF3E54" stroke="#FF3E54" stroke-width="0.1"/>
<path d="M30.5042 3.6314L30.5042 3.63131L30.5071 3.63032C30.9085 3.49301 31.2951 3.75857 31.2951 4.17513C31.2951 4.18947 31.2918 4.20544 31.2878 4.22036C31.2836 4.23617 31.2776 4.25457 31.2701 4.27506C31.2551 4.31609 31.2335 4.36805 31.2062 4.42902C31.1517 4.5511 31.0736 4.71192 30.9791 4.89868C30.7901 5.27236 30.5343 5.75181 30.2671 6.23681C29.9999 6.72184 29.721 7.21281 29.4856 7.60952C29.2516 8.00391 29.0578 8.31003 28.9615 8.42167C28.847 8.55786 28.6672 8.61776 28.4944 8.6099C28.3217 8.60205 28.1476 8.52615 28.0441 8.37963C27.9983 8.31849 27.9578 8.25006 27.9285 8.18893C27.9138 8.15824 27.9016 8.12874 27.893 8.10238C27.8847 8.077 27.8785 8.0509 27.8785 8.02831C27.8785 8.01286 27.8831 7.99566 27.8879 7.98094C27.8931 7.96471 27.9005 7.94544 27.9098 7.92372C27.9282 7.88019 27.9549 7.82394 27.9885 7.75727C28.0557 7.62377 28.1516 7.44587 28.2669 7.23912C28.4975 6.82548 28.8066 6.2946 29.1208 5.7688C29.4349 5.243 29.7543 4.72189 30.0057 4.32779C30.1314 4.13082 30.2403 3.96515 30.3232 3.84637C30.3645 3.78707 30.3999 3.73881 30.4278 3.70399C30.4417 3.68665 30.4544 3.67189 30.4655 3.66055C30.4746 3.65118 30.4884 3.63791 30.5042 3.6314Z" fill="#FF3E54" stroke="#FF3E54" stroke-width="0.1"/>
<mask id="path-4-outside-1_216_596" maskUnits="userSpaceOnUse" x="10.2455" y="7.99985" width="21" height="34" fill="black">
<rect fill="white" x="10.2455" y="7.99985" width="21" height="34"/>
<path d="M19.9587 8.67213C17.1493 8.93552 14.4667 10.5743 12.8669 12.9936C12.2523 13.9203 11.9109 14.6421 11.5695 15.7835C11.228 16.9053 11.1403 19.0611 11.3841 20.2609C11.7548 22.0656 12.4962 23.5386 13.7546 24.9921C15.0032 26.4163 15.2568 26.7577 15.5397 27.3625C15.7055 27.6844 15.8616 28.1527 15.8909 28.3868C15.9494 28.7965 15.9397 28.816 15.608 28.933C15.169 29.0891 14.5837 29.6647 14.3594 30.1622C14.096 30.7475 14.1155 31.6937 14.4081 32.3278C14.6423 32.835 15.2276 33.4008 15.6177 33.4983C15.7348 33.5374 15.8324 33.5764 15.8324 33.5959C15.8324 33.6056 15.7348 33.791 15.6177 33.9958C15.4324 34.2982 15.3934 34.5128 15.3934 35.1469C15.3934 35.8298 15.4324 35.9858 15.6665 36.3955C15.9592 36.893 16.603 37.4198 17.0127 37.5076C17.2371 37.5466 17.2858 37.6149 17.3346 38.0149C17.4809 39.0976 18.3101 40.1804 19.3929 40.717C19.9294 40.9706 20.066 40.9999 21.0025 40.9999C21.9097 40.9999 22.095 40.9706 22.5827 40.7365C23.646 40.239 24.524 39.0879 24.6703 38.0149C24.7191 37.6149 24.7678 37.5466 24.9922 37.5076C25.4019 37.4198 26.0457 36.893 26.3384 36.3955C26.5725 35.9858 26.6115 35.8298 26.6115 35.1469C26.6115 34.5128 26.5725 34.2982 26.3969 33.9958C26.2701 33.791 26.1725 33.6056 26.1725 33.5959C26.1725 33.5764 26.2701 33.5374 26.3969 33.4983C26.7773 33.4008 27.3626 32.835 27.5968 32.3278C27.8894 31.6937 27.9089 30.7475 27.6455 30.1622C27.4212 29.6647 26.8359 29.0891 26.3969 28.933C26.0652 28.816 26.0555 28.7965 26.114 28.3868C26.2311 27.5283 26.7091 26.7772 28.2503 24.9921C29.5185 23.5386 30.2501 22.0656 30.6208 20.2609C30.8646 19.0416 30.7769 16.915 30.4257 15.7347C29.2453 11.7839 26.0847 9.12086 22.0462 8.67213C21.5292 8.6136 21.0317 8.57458 20.9342 8.57458C20.8366 8.58434 20.3976 8.62336 19.9587 8.67213ZM23.3436 10.0281C26.3091 10.8865 28.66 13.296 29.4502 16.32C29.7233 17.354 29.7038 19.5683 29.4112 20.5926C28.9624 22.1534 28.4259 23.0899 27.0993 24.6019C25.6653 26.2407 25.3044 26.8845 24.9629 28.3868C24.9044 28.6599 24.8947 28.6599 24.0752 28.6599H23.2461V25.4896V22.3192H24.1045C25.1971 22.3192 25.8701 22.1241 26.3872 21.6559C27.7431 20.4365 27.4504 18.1929 25.8311 17.393C25.5385 17.2467 25.2361 17.1979 24.6508 17.1979C23.9484 17.1979 23.8119 17.2272 23.3924 17.4906C22.4169 18.0954 22.0755 18.8562 22.0755 20.417V21.2462H21.0122H19.9587L19.9099 20.1439C19.8416 18.6319 19.5392 18.0271 18.5735 17.4613C18.1833 17.2369 18.0175 17.1979 17.3444 17.1979C16.7688 17.1979 16.4664 17.2467 16.1738 17.393C14.5545 18.1929 14.2618 20.4365 15.6177 21.6559C16.1348 22.1241 16.8078 22.3192 17.9004 22.3192H18.7588V25.4896V28.6599H17.9297C17.1102 28.6599 17.1005 28.6599 17.0517 28.3868C16.7396 26.9626 16.3201 26.2212 14.8666 24.5531C12.9449 22.368 12.2328 20.5048 12.3499 18.0368C12.4572 15.6469 13.4131 13.6374 15.2276 11.979C16.3103 10.9743 17.7833 10.2037 19.1978 9.8915C20.1928 9.66713 22.3681 9.74517 23.3436 10.0281ZM17.9394 18.427C18.6027 18.7489 18.7588 19.0904 18.7588 20.2609V21.2462H18.0565C17.1102 21.2462 16.6323 21.0999 16.2518 20.6999C15.7348 20.1439 15.7055 19.383 16.1933 18.7977C16.681 18.2222 17.2663 18.0954 17.9394 18.427ZM25.4799 18.4856C25.9482 18.8367 26.1238 19.1782 26.1238 19.7147C26.1238 20.0854 26.0652 20.3097 25.8994 20.5438C25.5482 21.0316 25.1678 21.1779 24.1533 21.2267L23.2461 21.2657V20.2707C23.2461 19.4318 23.2753 19.2172 23.4412 18.9538C23.8606 18.2807 24.8849 18.0466 25.4799 18.4856ZM22.0755 25.4896V28.6599H21.0025H19.9294V25.4896V22.3192H21.0025H22.0755V25.4896ZM26.0555 30.0256C27.0115 30.6109 26.9724 31.9083 25.9774 32.4351C25.558 32.6594 25.5482 32.6594 21.0025 32.6594C16.4567 32.6594 16.4469 32.6594 16.0275 32.4351C15.0325 31.9083 14.9934 30.6109 15.9494 30.0256C16.2616 29.8403 16.4567 29.8305 21.0025 29.8305C25.5482 29.8305 25.7433 29.8403 26.0555 30.0256ZM24.7776 33.8983C25.158 34.0739 25.4604 34.4933 25.5482 34.9713C25.6458 35.4688 25.2848 36.1126 24.7678 36.3565C24.3776 36.5516 24.1923 36.5614 21.0025 36.5614C17.8126 36.5614 17.6273 36.5516 17.2371 36.3565C16.2226 35.8688 16.203 34.3958 17.2078 33.8983C17.5004 33.7617 17.9687 33.7325 20.9829 33.7325C24.007 33.7325 24.4752 33.752 24.7776 33.8983ZM23.6363 37.7515C23.6363 38.0149 23.168 38.8733 22.8559 39.1757C22.3096 39.7317 21.8316 39.9268 21.0025 39.9268C20.1733 39.9268 19.6953 39.7317 19.149 39.1757C18.8369 38.8733 18.3686 38.0149 18.3686 37.7515C18.3686 37.6637 18.9637 37.6344 21.0025 37.6344C23.0412 37.6344 23.6363 37.6637 23.6363 37.7515Z"/>
</mask>
<path d="M19.9587 8.67213C17.1493 8.93552 14.4667 10.5743 12.8669 12.9936C12.2523 13.9203 11.9109 14.6421 11.5695 15.7835C11.228 16.9053 11.1403 19.0611 11.3841 20.2609C11.7548 22.0656 12.4962 23.5386 13.7546 24.9921C15.0032 26.4163 15.2568 26.7577 15.5397 27.3625C15.7055 27.6844 15.8616 28.1527 15.8909 28.3868C15.9494 28.7965 15.9397 28.816 15.608 28.933C15.169 29.0891 14.5837 29.6647 14.3594 30.1622C14.096 30.7475 14.1155 31.6937 14.4081 32.3278C14.6423 32.835 15.2276 33.4008 15.6177 33.4983C15.7348 33.5374 15.8324 33.5764 15.8324 33.5959C15.8324 33.6056 15.7348 33.791 15.6177 33.9958C15.4324 34.2982 15.3934 34.5128 15.3934 35.1469C15.3934 35.8298 15.4324 35.9858 15.6665 36.3955C15.9592 36.893 16.603 37.4198 17.0127 37.5076C17.2371 37.5466 17.2858 37.6149 17.3346 38.0149C17.4809 39.0976 18.3101 40.1804 19.3929 40.717C19.9294 40.9706 20.066 40.9999 21.0025 40.9999C21.9097 40.9999 22.095 40.9706 22.5827 40.7365C23.646 40.239 24.524 39.0879 24.6703 38.0149C24.7191 37.6149 24.7678 37.5466 24.9922 37.5076C25.4019 37.4198 26.0457 36.893 26.3384 36.3955C26.5725 35.9858 26.6115 35.8298 26.6115 35.1469C26.6115 34.5128 26.5725 34.2982 26.3969 33.9958C26.2701 33.791 26.1725 33.6056 26.1725 33.5959C26.1725 33.5764 26.2701 33.5374 26.3969 33.4983C26.7773 33.4008 27.3626 32.835 27.5968 32.3278C27.8894 31.6937 27.9089 30.7475 27.6455 30.1622C27.4212 29.6647 26.8359 29.0891 26.3969 28.933C26.0652 28.816 26.0555 28.7965 26.114 28.3868C26.2311 27.5283 26.7091 26.7772 28.2503 24.9921C29.5185 23.5386 30.2501 22.0656 30.6208 20.2609C30.8646 19.0416 30.7769 16.915 30.4257 15.7347C29.2453 11.7839 26.0847 9.12086 22.0462 8.67213C21.5292 8.6136 21.0317 8.57458 20.9342 8.57458C20.8366 8.58434 20.3976 8.62336 19.9587 8.67213ZM23.3436 10.0281C26.3091 10.8865 28.66 13.296 29.4502 16.32C29.7233 17.354 29.7038 19.5683 29.4112 20.5926C28.9624 22.1534 28.4259 23.0899 27.0993 24.6019C25.6653 26.2407 25.3044 26.8845 24.9629 28.3868C24.9044 28.6599 24.8947 28.6599 24.0752 28.6599H23.2461V25.4896V22.3192H24.1045C25.1971 22.3192 25.8701 22.1241 26.3872 21.6559C27.7431 20.4365 27.4504 18.1929 25.8311 17.393C25.5385 17.2467 25.2361 17.1979 24.6508 17.1979C23.9484 17.1979 23.8119 17.2272 23.3924 17.4906C22.4169 18.0954 22.0755 18.8562 22.0755 20.417V21.2462H21.0122H19.9587L19.9099 20.1439C19.8416 18.6319 19.5392 18.0271 18.5735 17.4613C18.1833 17.2369 18.0175 17.1979 17.3444 17.1979C16.7688 17.1979 16.4664 17.2467 16.1738 17.393C14.5545 18.1929 14.2618 20.4365 15.6177 21.6559C16.1348 22.1241 16.8078 22.3192 17.9004 22.3192H18.7588V25.4896V28.6599H17.9297C17.1102 28.6599 17.1005 28.6599 17.0517 28.3868C16.7396 26.9626 16.3201 26.2212 14.8666 24.5531C12.9449 22.368 12.2328 20.5048 12.3499 18.0368C12.4572 15.6469 13.4131 13.6374 15.2276 11.979C16.3103 10.9743 17.7833 10.2037 19.1978 9.8915C20.1928 9.66713 22.3681 9.74517 23.3436 10.0281ZM17.9394 18.427C18.6027 18.7489 18.7588 19.0904 18.7588 20.2609V21.2462H18.0565C17.1102 21.2462 16.6323 21.0999 16.2518 20.6999C15.7348 20.1439 15.7055 19.383 16.1933 18.7977C16.681 18.2222 17.2663 18.0954 17.9394 18.427ZM25.4799 18.4856C25.9482 18.8367 26.1238 19.1782 26.1238 19.7147C26.1238 20.0854 26.0652 20.3097 25.8994 20.5438C25.5482 21.0316 25.1678 21.1779 24.1533 21.2267L23.2461 21.2657V20.2707C23.2461 19.4318 23.2753 19.2172 23.4412 18.9538C23.8606 18.2807 24.8849 18.0466 25.4799 18.4856ZM22.0755 25.4896V28.6599H21.0025H19.9294V25.4896V22.3192H21.0025H22.0755V25.4896ZM26.0555 30.0256C27.0115 30.6109 26.9724 31.9083 25.9774 32.4351C25.558 32.6594 25.5482 32.6594 21.0025 32.6594C16.4567 32.6594 16.4469 32.6594 16.0275 32.4351C15.0325 31.9083 14.9934 30.6109 15.9494 30.0256C16.2616 29.8403 16.4567 29.8305 21.0025 29.8305C25.5482 29.8305 25.7433 29.8403 26.0555 30.0256ZM24.7776 33.8983C25.158 34.0739 25.4604 34.4933 25.5482 34.9713C25.6458 35.4688 25.2848 36.1126 24.7678 36.3565C24.3776 36.5516 24.1923 36.5614 21.0025 36.5614C17.8126 36.5614 17.6273 36.5516 17.2371 36.3565C16.2226 35.8688 16.203 34.3958 17.2078 33.8983C17.5004 33.7617 17.9687 33.7325 20.9829 33.7325C24.007 33.7325 24.4752 33.752 24.7776 33.8983ZM23.6363 37.7515C23.6363 38.0149 23.168 38.8733 22.8559 39.1757C22.3096 39.7317 21.8316 39.9268 21.0025 39.9268C20.1733 39.9268 19.6953 39.7317 19.149 39.1757C18.8369 38.8733 18.3686 38.0149 18.3686 37.7515C18.3686 37.6637 18.9637 37.6344 21.0025 37.6344C23.0412 37.6344 23.6363 37.6637 23.6363 37.7515Z" fill="#FF3E54"/>
<path d="M19.9587 8.67213C17.1493 8.93552 14.4667 10.5743 12.8669 12.9936C12.2523 13.9203 11.9109 14.6421 11.5695 15.7835C11.228 16.9053 11.1403 19.0611 11.3841 20.2609C11.7548 22.0656 12.4962 23.5386 13.7546 24.9921C15.0032 26.4163 15.2568 26.7577 15.5397 27.3625C15.7055 27.6844 15.8616 28.1527 15.8909 28.3868C15.9494 28.7965 15.9397 28.816 15.608 28.933C15.169 29.0891 14.5837 29.6647 14.3594 30.1622C14.096 30.7475 14.1155 31.6937 14.4081 32.3278C14.6423 32.835 15.2276 33.4008 15.6177 33.4983C15.7348 33.5374 15.8324 33.5764 15.8324 33.5959C15.8324 33.6056 15.7348 33.791 15.6177 33.9958C15.4324 34.2982 15.3934 34.5128 15.3934 35.1469C15.3934 35.8298 15.4324 35.9858 15.6665 36.3955C15.9592 36.893 16.603 37.4198 17.0127 37.5076C17.2371 37.5466 17.2858 37.6149 17.3346 38.0149C17.4809 39.0976 18.3101 40.1804 19.3929 40.717C19.9294 40.9706 20.066 40.9999 21.0025 40.9999C21.9097 40.9999 22.095 40.9706 22.5827 40.7365C23.646 40.239 24.524 39.0879 24.6703 38.0149C24.7191 37.6149 24.7678 37.5466 24.9922 37.5076C25.4019 37.4198 26.0457 36.893 26.3384 36.3955C26.5725 35.9858 26.6115 35.8298 26.6115 35.1469C26.6115 34.5128 26.5725 34.2982 26.3969 33.9958C26.2701 33.791 26.1725 33.6056 26.1725 33.5959C26.1725 33.5764 26.2701 33.5374 26.3969 33.4983C26.7773 33.4008 27.3626 32.835 27.5968 32.3278C27.8894 31.6937 27.9089 30.7475 27.6455 30.1622C27.4212 29.6647 26.8359 29.0891 26.3969 28.933C26.0652 28.816 26.0555 28.7965 26.114 28.3868C26.2311 27.5283 26.7091 26.7772 28.2503 24.9921C29.5185 23.5386 30.2501 22.0656 30.6208 20.2609C30.8646 19.0416 30.7769 16.915 30.4257 15.7347C29.2453 11.7839 26.0847 9.12086 22.0462 8.67213C21.5292 8.6136 21.0317 8.57458 20.9342 8.57458C20.8366 8.58434 20.3976 8.62336 19.9587 8.67213ZM23.3436 10.0281C26.3091 10.8865 28.66 13.296 29.4502 16.32C29.7233 17.354 29.7038 19.5683 29.4112 20.5926C28.9624 22.1534 28.4259 23.0899 27.0993 24.6019C25.6653 26.2407 25.3044 26.8845 24.9629 28.3868C24.9044 28.6599 24.8947 28.6599 24.0752 28.6599H23.2461V25.4896V22.3192H24.1045C25.1971 22.3192 25.8701 22.1241 26.3872 21.6559C27.7431 20.4365 27.4504 18.1929 25.8311 17.393C25.5385 17.2467 25.2361 17.1979 24.6508 17.1979C23.9484 17.1979 23.8119 17.2272 23.3924 17.4906C22.4169 18.0954 22.0755 18.8562 22.0755 20.417V21.2462H21.0122H19.9587L19.9099 20.1439C19.8416 18.6319 19.5392 18.0271 18.5735 17.4613C18.1833 17.2369 18.0175 17.1979 17.3444 17.1979C16.7688 17.1979 16.4664 17.2467 16.1738 17.393C14.5545 18.1929 14.2618 20.4365 15.6177 21.6559C16.1348 22.1241 16.8078 22.3192 17.9004 22.3192H18.7588V25.4896V28.6599H17.9297C17.1102 28.6599 17.1005 28.6599 17.0517 28.3868C16.7396 26.9626 16.3201 26.2212 14.8666 24.5531C12.9449 22.368 12.2328 20.5048 12.3499 18.0368C12.4572 15.6469 13.4131 13.6374 15.2276 11.979C16.3103 10.9743 17.7833 10.2037 19.1978 9.8915C20.1928 9.66713 22.3681 9.74517 23.3436 10.0281ZM17.9394 18.427C18.6027 18.7489 18.7588 19.0904 18.7588 20.2609V21.2462H18.0565C17.1102 21.2462 16.6323 21.0999 16.2518 20.6999C15.7348 20.1439 15.7055 19.383 16.1933 18.7977C16.681 18.2222 17.2663 18.0954 17.9394 18.427ZM25.4799 18.4856C25.9482 18.8367 26.1238 19.1782 26.1238 19.7147C26.1238 20.0854 26.0652 20.3097 25.8994 20.5438C25.5482 21.0316 25.1678 21.1779 24.1533 21.2267L23.2461 21.2657V20.2707C23.2461 19.4318 23.2753 19.2172 23.4412 18.9538C23.8606 18.2807 24.8849 18.0466 25.4799 18.4856ZM22.0755 25.4896V28.6599H21.0025H19.9294V25.4896V22.3192H21.0025H22.0755V25.4896ZM26.0555 30.0256C27.0115 30.6109 26.9724 31.9083 25.9774 32.4351C25.558 32.6594 25.5482 32.6594 21.0025 32.6594C16.4567 32.6594 16.4469 32.6594 16.0275 32.4351C15.0325 31.9083 14.9934 30.6109 15.9494 30.0256C16.2616 29.8403 16.4567 29.8305 21.0025 29.8305C25.5482 29.8305 25.7433 29.8403 26.0555 30.0256ZM24.7776 33.8983C25.158 34.0739 25.4604 34.4933 25.5482 34.9713C25.6458 35.4688 25.2848 36.1126 24.7678 36.3565C24.3776 36.5516 24.1923 36.5614 21.0025 36.5614C17.8126 36.5614 17.6273 36.5516 17.2371 36.3565C16.2226 35.8688 16.203 34.3958 17.2078 33.8983C17.5004 33.7617 17.9687 33.7325 20.9829 33.7325C24.007 33.7325 24.4752 33.752 24.7776 33.8983ZM23.6363 37.7515C23.6363 38.0149 23.168 38.8733 22.8559 39.1757C22.3096 39.7317 21.8316 39.9268 21.0025 39.9268C20.1733 39.9268 19.6953 39.7317 19.149 39.1757C18.8369 38.8733 18.3686 38.0149 18.3686 37.7515C18.3686 37.6637 18.9637 37.6344 21.0025 37.6344C23.0412 37.6344 23.6363 37.6637 23.6363 37.7515Z" stroke="#FF3E54" stroke-width="0.2" mask="url(#path-4-outside-1_216_596)"/>
<path d="M5.76957 12.9588L5.76954 12.9588C4.66478 12.3213 4.05907 11.9597 3.76774 11.7019C3.62195 11.5729 3.54512 11.4616 3.53216 11.3463C3.51921 11.231 3.57189 11.1259 3.64564 11.0152C3.7142 10.9086 3.79202 10.827 3.90715 10.7927C4.02047 10.7589 4.16013 10.7739 4.3458 10.8354C4.71638 10.9581 5.30433 11.2783 6.3072 11.8577C6.82929 12.1553 7.32213 12.4432 7.69673 12.6665C7.88403 12.7781 8.0419 12.8737 8.15914 12.9463C8.27483 13.018 8.35423 13.0692 8.38155 13.0911L8.38158 13.091L8.38324 13.0925C8.51444 13.2073 8.57157 13.3871 8.56242 13.5595C8.55328 13.7319 8.47747 13.906 8.33095 14.0095C8.26981 14.0553 8.20137 14.0958 8.14024 14.1251C8.10956 14.1398 8.08005 14.152 8.0537 14.1606C8.02832 14.1689 8.00222 14.1751 7.97963 14.1751C7.96967 14.1751 7.96074 14.1723 7.95725 14.1712C7.95209 14.1696 7.94647 14.1674 7.94077 14.1651C7.92926 14.1604 7.9146 14.1537 7.89733 14.1454C7.86265 14.1288 7.81503 14.1045 7.75625 14.0737C7.63855 14.0118 7.47448 13.9226 7.27622 13.8128C6.87961 13.5931 6.34527 13.2906 5.76957 12.9588Z" fill="#FF3E54" stroke="#FF3E54" stroke-width="0.1"/>
<path d="M33.6032 13.1111L33.6032 13.1111C33.4743 13.2176 33.4258 13.3973 33.4401 13.5672C33.4544 13.7372 33.5323 13.911 33.6741 14.0096C33.7352 14.0553 33.8035 14.0958 33.8646 14.1251C33.8953 14.1398 33.9248 14.152 33.9512 14.1606C33.9765 14.1689 34.0026 14.1751 34.0252 14.1751C34.0352 14.1751 34.0441 14.1723 34.0476 14.1712C34.0528 14.1696 34.0584 14.1674 34.0641 14.1651C34.0756 14.1604 34.0903 14.1537 34.1075 14.1454C34.1422 14.1288 34.1898 14.1045 34.2486 14.0737C34.3663 14.0118 34.5304 13.9226 34.7286 13.8128C35.1252 13.5931 35.6596 13.2906 36.2353 12.9588L36.2353 12.9588C37.3401 12.3213 37.9458 11.9597 38.2371 11.7019C38.3829 11.5728 38.4597 11.4616 38.4727 11.3463C38.4856 11.231 38.4329 11.1258 38.3591 11.015M33.6032 13.1111L38.3174 11.0426M33.6032 13.1111L33.6043 13.1102C33.6288 13.0911 33.7047 13.0419 33.8172 12.9716C33.931 12.9004 34.0852 12.8057 34.2688 12.6947C34.6361 12.4726 35.1217 12.1847 35.6389 11.887M33.6032 13.1111L35.664 11.9303M38.3591 11.015C38.3591 11.015 38.359 11.0149 38.359 11.0148L38.3174 11.0426M38.3591 11.015C38.3592 11.0151 38.3592 11.0152 38.3593 11.0153L38.3174 11.0426M38.3591 11.015C38.2878 10.9056 38.2061 10.823 38.0866 10.7889C37.9691 10.7553 37.8245 10.7715 37.6333 10.8354C37.2517 10.963 36.6516 11.2931 35.6389 11.887M38.3174 11.0426C38.0442 10.6231 37.6931 10.7402 35.664 11.9303M35.6389 11.887C35.639 11.887 35.639 11.887 35.6391 11.8869L35.664 11.9303M35.6389 11.887C35.6389 11.8871 35.6388 11.8871 35.6387 11.8871L35.664 11.9303" fill="#FF3E54" stroke="#FF3E54" stroke-width="0.1"/>
<path d="M3.85393 20.4353L3.85383 20.4353C2.81553 20.4256 2.20421 20.4231 1.82938 20.4402C1.45801 20.4572 1.30659 20.4934 1.2003 20.5714C0.859225 20.8065 0.870362 21.3078 1.21147 21.5318C1.3264 21.6083 1.48542 21.6473 1.86216 21.6656L3.85393 20.4353ZM3.85393 20.4353C4.71726 20.4451 5.32795 20.4597 5.73404 20.483C5.93692 20.4946 6.09001 20.5084 6.19848 20.5251C6.25263 20.5334 6.29701 20.5426 6.33149 20.5531C6.36399 20.563 6.39501 20.5761 6.41524 20.5963C6.46323 20.6443 6.4955 20.7163 6.51601 20.7938C6.53682 20.8725 6.54694 20.9622 6.54694 21.0511C6.54694 21.14 6.53682 21.2297 6.51601 21.3084C6.4955 21.3859 6.46323 21.4579 6.41524 21.5059C6.3951 21.5261 6.36436 21.5391 6.33205 21.5491C6.29784 21.5596 6.25386 21.5688 6.20023 21.5771C6.0928 21.5938 5.94122 21.6076 5.74016 21.6192C5.33773 21.6425 4.73193 21.6571 3.87351 21.6669L3.85393 20.4353Z" fill="#FF3E54" stroke="#FF3E54" stroke-width="0.1"/>
<path d="M35.7827 21.5953L35.7827 21.5953C35.8051 21.6039 35.8426 21.6103 35.8873 21.616C35.9341 21.6219 35.9945 21.6275 36.0665 21.6328C36.2107 21.6433 36.4035 21.6528 36.6306 21.6607C37.0848 21.6766 37.6781 21.6864 38.2979 21.6864C38.927 21.6864 39.4113 21.684 39.7835 21.6717C40.1551 21.6595 40.4181 21.6375 40.6034 21.5975C40.7881 21.5575 40.9051 21.4977 40.9726 21.4018C41.0392 21.3073 41.0501 21.1878 41.0501 21.0511C41.0501 20.9146 41.0399 20.795 40.9736 20.7006C40.9063 20.6047 40.789 20.5452 40.6031 20.5059C40.4167 20.4665 40.1512 20.4454 39.7751 20.4346L35.7827 21.5953ZM35.7827 21.5953L35.7823 21.5951M35.7827 21.5953L35.7823 21.5951M35.7823 21.5951C35.5502 21.5033 35.4317 21.2778 35.4251 21.0575M35.7823 21.5951L35.4251 21.0575M35.4251 21.0575C35.4186 20.8372 35.5238 20.6098 35.7524 20.5171M35.4251 21.0575L35.7524 20.5171M35.7524 20.5171C35.7743 20.5081 35.8112 20.5016 35.8543 20.496C35.8999 20.4901 35.9593 20.4845 36.0303 20.4792C36.1726 20.4686 36.3638 20.4591 36.5903 20.4512C37.0434 20.4353 37.639 20.4256 38.2686 20.4256C38.2686 20.4256 38.2685 20.4256 38.2685 20.4256L35.7524 20.5171Z" fill="#FF3E54" stroke="#FF3E54" stroke-width="0.1"/>
<path d="M5.76954 29.1434L5.76957 29.1434C6.34527 28.8116 6.87961 28.5091 7.27622 28.2894C7.47448 28.1796 7.63855 28.0904 7.75625 28.0285C7.81503 27.9977 7.86265 27.9734 7.89733 27.9568C7.9146 27.9485 7.92926 27.9418 7.94077 27.9371C7.94647 27.9348 7.95209 27.9326 7.95725 27.931C7.96074 27.9299 7.96967 27.9271 7.97963 27.9271C8.00222 27.9271 8.02832 27.9333 8.0537 27.9416C8.08005 27.9502 8.10956 27.9624 8.14024 27.9771C8.20137 28.0064 8.2698 28.0469 8.33093 28.0927C8.47746 28.1962 8.55328 28.3703 8.56242 28.5427C8.57157 28.7151 8.51444 28.8949 8.38324 29.0097L8.38327 29.0097L8.38155 29.0111C8.35423 29.033 8.27483 29.0842 8.15914 29.1559C8.0419 29.2285 7.88403 29.3241 7.69673 29.4357C7.32212 29.659 6.82927 29.9469 6.30716 30.2446C5.30431 30.8239 4.71637 31.1441 4.3458 31.2668C4.16013 31.3283 4.02047 31.3433 3.90715 31.3095C3.79202 31.2752 3.7142 31.1936 3.64564 31.087C3.57189 30.9763 3.51921 30.8712 3.53216 30.7559C3.54512 30.6406 3.62195 30.5293 3.76774 30.4003C4.05907 30.1425 4.66478 29.7809 5.76954 29.1434Z" fill="#FF3E54" stroke="#FF3E54" stroke-width="0.1"/>
<path d="M33.6043 28.992L33.6043 28.992L33.6032 28.9911C33.4743 28.8846 33.4258 28.7049 33.4401 28.535C33.4544 28.365 33.5323 28.1911 33.6741 28.0926C33.7352 28.0468 33.8035 28.0064 33.8646 27.9771C33.8953 27.9624 33.9248 27.9502 33.9512 27.9416C33.9765 27.9333 34.0026 27.9271 34.0252 27.9271C34.0352 27.9271 34.0441 27.9299 34.0476 27.931C34.0528 27.9326 34.0584 27.9347 34.0641 27.9371C34.0756 27.9418 34.0903 27.9485 34.1075 27.9567C34.1422 27.9734 34.1898 27.9976 34.2486 28.0285C34.3663 28.0903 34.5304 28.1796 34.7286 28.2894C35.1252 28.509 35.6596 28.8116 36.2353 29.1433L36.2353 29.1434C37.3401 29.7809 37.9458 30.1424 38.2371 30.4003C38.3829 30.5293 38.4597 30.6405 38.4727 30.7559C38.4856 30.8712 38.433 30.9763 38.3592 31.087C38.2908 31.1934 38.2136 31.2751 38.0987 31.3092C37.9857 31.3427 37.8462 31.327 37.66 31.2643C37.2883 31.1392 36.6956 30.814 35.6781 30.225C35.1511 29.9225 34.6559 29.6321 34.2813 29.4089C34.094 29.2972 33.9368 29.2023 33.8208 29.1309C33.7064 29.0605 33.629 29.0112 33.6043 28.992Z" fill="#FF3E54" stroke="#FF3E54" stroke-width="0.1"/>
</svg>
